0
SECTION
2
HEADER
9
$INSUNITS
70
4
9
$ACADVER
1
AC1014
9
$HANDSEED
5
FFFF
0
ENDSEC
0
SECTION
2
TABLES
0
TABLE
2
VPORT
5
8
100
AcDbSymbolTable
0
ENDTAB
0
TABLE
2
LTYPE
5
5
100
AcDbSymbolTable
0
LTYPE
5
14
100
AcDbSymbolTableRecord
100
AcDbLinetypeTableRecord
2
BYBLOCK
70
0
0
LTYPE
5
15
100
AcDbSymbolTableRecord
100
AcDbLinetypeTableRecord
2
BYLAYER
70
0
0
LTYPE
5
16
100
AcDbSymbolTableRecord
100
AcDbLinetypeTableRecord
2
DASHED
70
0
3
Dashed __ __ __ __ __ __ __ __ __ __ __ __ __ _
72
65
73
2
40
0.75
49
0.5
74
0
49
-0.25
74
0
0
ENDTAB
0
TABLE
2
LAYER
5
2
100
AcDbSymbolTable
70
3
0
LAYER
5
50
100
AcDbSymbolTableRecord
100
AcDbLayerTableRecord
2
1
70
0
62
7
6
DASHED
0
LAYER
5
51
100
AcDbSymbolTableRecord
100
AcDbLayerTableRecord
2
0
70
0
62
7
6
CONTINUOUS
0
ENDTAB
0
TABLE
2
STYLE
5
3
100
AcDbSymbolTable
70
1
0
STYLE
5
11
100
AcDbSymbolTableRecord
100
AcDbTextStyleTableRecord
2
STANDARD
70
0
0
ENDTAB
0
TABLE
2
VIEW
5
6
100
AcDbSymbolTable
70
0
0
ENDTAB
0
TABLE
2
UCS
5
7
100
AcDbSymbolTable
70
0
0
ENDTAB
0
TABLE
2
APPID
5
9
100
AcDbSymbolTable
70
2
0
APPID
5
12
100
AcDbSymbolTableRecord
100
AcDbRegAppTableRecord
2
ACAD
70
0
0
ENDTAB
0
TABLE
2
DIMSTYLE
5
A
100
AcDbSymbolTable
70
1
0
ENDTAB
0
TABLE
2
BLOCK_RECORD
5
1
100
AcDbSymbolTable
70
1
0
BLOCK_RECORD
5
1F
100
AcDbSymbolTableRecord
100
AcDbBlockTableRecord
2
*MODEL_SPACE
0
BLOCK_RECORD
5
1B
100
AcDbSymbolTableRecord
100
AcDbBlockTableRecord
2
*PAPER_SPACE
0
ENDTAB
0
ENDSEC
0
SECTION
2
BLOCKS
0
BLOCK
5
20
100
AcDbEntity
100
AcDbBlockBegin
2
*MODEL_SPACE
0
ENDBLK
5
21
100
AcDbEntity
100
AcDbBlockEnd
0
BLOCK
5
1C
100
AcDbEntity
100
AcDbBlockBegin
2
*PAPER_SPACE
0
ENDBLK
5
1D
100
AcDbEntity
100
AcDbBlockEnd
0
ENDSEC
0
SECTION
2
ENTITIES
0
LWPOLYLINE
5
100
100
AcDbEntity
8
0
100
AcDbPolyline
90
71
70
1
43
0.0
10
-0.82549999999999946
20
27.284446680329197
42
0.3263045094917198
10
-1.5212499999999982
20
28.237038900274332
42
-0.32630450949171647
10
-5
20
33
10
-5
20
37.000000000000014
42
-0.99999999999999989
10
5
20
37.000000000000007
10
5.0000000000000089
20
33.000000000000007
42
-0.32630450949171719
10
1.5212499999999998
20
28.237038900274332
42
0.32630450949171974
10
0.82549999999999946
20
27.284446680329197
10
0.82550000000000001
20
24.933261915561722
42
0.39296589033840079
10
1.752479999999994
20
23.935931438939253
42
-0.22914570667346645
10
19.852884689364014
20
13.48565791909377
42
0.39296589033840418
10
21.180088218087523
20
13.181534928604894
10
23.216273953367093
20
14.357127310988638
42
0.32630450949171624
10
23.693368015286996
20
15.435960595644227
42
-0.32630450949171652
10
26.078838324886497
20
20.830127018922177
10
29.542939940024251
20
22.830127018922184
42
-0.99999999999999989
10
34.542939940024254
20
14.169872981077788
10
31.078838324886497
20
12.169872981077784
42
-0.32630450949171724
10
25.214618015286995
20
12.801078304630074
42
0.32630450949171663
10
24.041773953367095
20
12.92731936934053
10
22.005588218087517
20
11.751726986956792
42
0.39296589033839907
10
21.605364689363999
20
10.450273519845453
42
-0.22914570667346632
10
21.605364689364002
20
-10.450273519845478
42
0.39296589033840201
10
22.005588218087503
20
-11.751726986956818
10
24.04177395336708
20
-12.927319369340553
42
0.32630450949171941
10
25.21461801528698
20
-12.801078304630096
42
-0.32630450949171685
10
31.07883832488648
20
-12.169872981077816
10
34.542939940024233
20
-14.169872981077823
42
-0.99999999999999989
10
29.542939940024233
20
-22.830127018922202
10
26.078838324886483
20
-20.830127018922205
42
-0.32630450949171735
10
23.693368015286982
20
-15.43596059564425
42
0.32630450949171186
10
23.216273953367079
20
-14.357127310988659
10
21.180088218087501
20
-13.181534928604924
42
0.3929658903384029
10
19.852884689364
20
-13.485657919093764
42
-0.22914570667346668
10
1.7524800000000029
20
-23.935931438939253
42
0.39296589033840257
10
0.82549999999999579
20
-24.933261915561722
10
0.82549999999999668
20
-27.284446680329204
42
0.32630450949171785
10
1.5212499999999982
20
-28.237038900274335
42
-0.32630450949171746
10
5.0000000000000053
20
-33.000000000000014
10
5.0000000000000071
20
-37.000000000000014
42
-0.99999999999999989
10
-4.9999999999999929
20
-37.000000000000014
10
-4.9999999999999947
20
-33.000000000000007
42
-0.32630450949171641
10
-1.5212500000000015
20
-28.237038900274342
42
0.32630450949171486
10
-0.82550000000000123
20
-27.284446680329207
10
-0.82550000000000301
20
-24.933261915561722
42
0.39296589033840068
10
-1.7524800000000007
20
-23.935931438939264
42
-0.22914570667346679
10
-19.852884689364018
20
-13.48565791909377
42
0.3929658903383999
10
-21.180088218087519
20
-13.181534928604908
10
-23.216273953367086
20
-14.357127310988647
42
0.32630450949171941
10
-23.693368015286982
20
-15.435960595644236
42
-0.32630450949171774
10
-26.078838324886483
20
-20.830127018922198
10
-29.542939940024247
20
-22.830127018922202
42
-0.99999999999999989
10
-34.54293994002424
20
-14.169872981077809
10
-31.078838324886483
20
-12.169872981077814
42
-0.32630450949171669
10
-25.214618015286987
20
-12.801078304630085
42
0.32630450949172107
10
-24.041773953367084
20
-12.927319369340541
10
-22.00558821808751
20
-11.7517269869568
42
0.39296589033840168
10
-21.605364689364031
20
-10.450273519845474
42
-0.22914570667346645
10
-21.605364689364009
20
10.450273519845474
42
0.39296589033840218
10
-22.00558821808751
20
11.751726986956808
10
-24.041773953367077
20
12.927319369340545
42
0.3263045094917198
10
-25.21461801528698
20
12.801078304630087
42
-0.32630450949171685
10
-31.07883832488648
20
12.169872981077807
10
-34.542939940024233
20
14.169872981077805
42
-0.99999999999999989
10
-29.542939940024233
20
22.830127018922198
10
-26.078838324886476
20
20.830127018922191
42
-0.32630450949171691
10
-23.693368015286982
20
15.435960595644239
42
0.32630450949171347
10
-23.216273953367079
20
14.357127310988652
10
-20.359561193329007
20
12.707803429983223
42
-0.23934701905906483
10
-1.7524799999999985
20
23.935931438939257
42
0.3929658903384004
10
-0.82549999999999857
20
24.933261915561722
0
CIRCLE
5
101
100
AcDbEntity
8
0
100
AcDbCircle
10
7.1176626405619783e-15
20
69.000000000000043
30
0
40
20.999999999999993
210
0
220
-0
230
1
0
CIRCLE
5
102
100
AcDbEntity
8
0
100
AcDbCircle
10
-48.790367901871797
20
-48.79036790187179
30
0
40
20.999999999999986
210
0
220
-0
230
1
0
LWPOLYLINE
5
103
100
AcDbEntity
8
0
100
AcDbPolyline
90
4
70
1
43
0.0
10
-88.765704138350827
20
-14.854284527460965
42
0.99999999999999989
10
-94.683417747574126
20
-15.84457016262502
42
0.026185921569187042
10
-92.508523508027793
20
-25.654884103512678
42
0.99999999999999989
10
-86.72674078877607
20
-24.05145384704316
42
-0.026185921569187077
0
LWPOLYLINE
5
104
100
AcDbEntity
8
0
100
AcDbPolyline
90
4
70
1
43
0.0
10
44.318120409312044
20
-78.332012634590981
42
0.99999999999999989
10
47.27266176993286
20
-83.554146810230378
42
0.026185921569187042
10
55.747483748250218
20
-78.155089762206629
42
0.9999999925494194
10
52.263266013984534
20
-73.270396652068769
42
-0.026185921569186744
0
CIRCLE
5
105
100
AcDbEntity
8
0
100
AcDbCircle
10
-48.790367901871775
20
48.790367901871804
30
0
40
20.999999999999996
210
0
220
-0
230
1
0
LWPOLYLINE
5
106
100
AcDbEntity
8
0
100
AcDbPolyline
90
4
70
1
43
0.0
10
-44.31812040931203
20
78.332012634590996
42
0.99999999999999989
10
-47.27266176993281
20
83.554146810230478
42
0.026185921569187309
10
-55.747483748250204
20
78.155089762206643
42
0.99999999999999989
10
-52.263266013984534
20
73.270396652068783
42
-0.026185921569186744
0
LWPOLYLINE
5
107
100
AcDbEntity
8
0
100
AcDbPolyline
90
4
70
1
43
0.0
10
14.854284527460983
20
-88.765704138350827
42
0.99999999999999989
10
15.844570162625022
20
-94.683417747574225
42
0.026185921569187309
10
25.654884103512675
20
-92.508523508027807
42
0.99999999999999989
10
24.051453847043057
20
-86.726740788776084
42
-0.026185921569186744
0
LWPOLYLINE
5
108
100
AcDbEntity
8
0
100
AcDbPolyline
90
4
70
1
43
0.0
10
-78.332012634590996
20
-44.318120409312016
42
0.9999999925494194
10
-83.554146810230463
20
-47.27266176993281
42
0.026185921569187309
10
-78.155089762206643
20
-55.747483748250204
42
0.99999999999999989
10
-73.270396652068712
20
-52.263266013984605
42
-0.026185921569187077
0
LWPOLYLINE
5
109
100
AcDbEntity
8
0
100
AcDbPolyline
90
4
70
1
43
0.0
10
-14.854284527460974
20
88.765704138350827
42
0.9999999925494194
10
-15.844570162625025
20
94.683417747574126
42
0.026185921569187042
10
-25.654884103512693
20
92.508523508027764
42
1.0000000074505806
10
-24.051453847042854
20
86.726740788776127
42
-0.026185921569186189
0
CIRCLE
5
110
100
AcDbEntity
8
0
100
AcDbCircle
10
-69
20
1.2404095666333176e-14
30
0
40
20.999999999999986
210
0
220
-0
230
1
0
LWPOLYLINE
5
111
100
AcDbEntity
8
0
100
AcDbPolyline
90
4
70
1
43
0.0
10
78.332012634590967
20
44.318120409312044
42
0.99999999999999989
10
83.554146810230421
20
47.27266176993281
42
0.026185921569187042
10
78.155089762206629
20
55.747483748250218
42
0.99999999999999989
10
73.270396652068683
20
52.263266013984619
42
-0.026185921569187077
0
CIRCLE
5
112
100
AcDbEntity
8
0
100
AcDbCircle
10
48.790367901871775
20
-48.790367901871775
30
0
40
20.999999999999996
210
0
220
-0
230
1
0
CIRCLE
5
113
100
AcDbEntity
8
0
100
AcDbCircle
10
48.790367901871782
20
48.790367901871797
30
0
40
20.999999999999996
210
0
220
-0
230
1
0
LWPOLYLINE
5
114
100
AcDbEntity
8
0
100
AcDbPolyline
90
4
70
1
43
0.0
10
88.765704138350827
20
14.854284527460976
42
0.99999999999999989
10
94.683417747574126
20
15.844570162625029
42
0.026185921569187309
10
92.50852350802775
20
25.654884103512789
42
0.99999999999999989
10
86.726740788776056
20
24.051453847043053
42
-0.026185921569186744
0
CIRCLE
5
115
100
AcDbEntity
8
0
100
AcDbCircle
10
-1.4399560102403667e-19
20
-69
30
0
40
20.999999999999993
210
0
220
-0
230
1
0
CIRCLE
5
116
100
AcDbEntity
8
0
100
AcDbCircle
10
69
20
-4.134652874395808e-15
30
0
40
20.999999999999996
210
0
220
-0
230
1
0
CIRCLE
5
117
100
AcDbEntity
8
0
100
AcDbCircle
10
-8.8817841970012523e-15
20
-2.2204460492503131e-14
30
0
40
100
210
0
220
0
230
1
0
ENDSEC
0
SECTION
2
OBJECTS
0
DICTIONARY
5
C
100
AcDbDictionary
3
ACAD_GROUP
350
D
3
ACAD_MLINESTYLE
350
17
0
DICTIONARY
5
D
100
AcDbDictionary
0
DICTIONARY
5
1A
330
C
100
AcDbDictionary
0
DICTIONARY
5
17
100
AcDbDictionary
0
ENDSEC
0
EOF
