0
SECTION
2
HEADER
9
$INSUNITS
70
4
9
$ACADVER
1
AC1014
9
$HANDSEED
5
FFFF
0
ENDSEC
0
SECTION
2
TABLES
0
TABLE
2
VPORT
5
8
100
AcDbSymbolTable
0
ENDTAB
0
TABLE
2
LTYPE
5
5
100
AcDbSymbolTable
0
LTYPE
5
14
100
AcDbSymbolTableRecord
100
AcDbLinetypeTableRecord
2
BYBLOCK
70
0
0
LTYPE
5
15
100
AcDbSymbolTableRecord
100
AcDbLinetypeTableRecord
2
BYLAYER
70
0
0
LTYPE
5
16
100
AcDbSymbolTableRecord
100
AcDbLinetypeTableRecord
2
DASHED
70
0
3
Dashed __ __ __ __ __ __ __ __ __ __ __ __ __ _
72
65
73
2
40
0.75
49
0.5
74
0
49
-0.25
74
0
0
ENDTAB
0
TABLE
2
LAYER
5
2
100
AcDbSymbolTable
70
3
0
LAYER
5
50
100
AcDbSymbolTableRecord
100
AcDbLayerTableRecord
2
1
70
0
62
7
6
DASHED
0
LAYER
5
51
100
AcDbSymbolTableRecord
100
AcDbLayerTableRecord
2
0
70
0
62
7
6
CONTINUOUS
0
ENDTAB
0
TABLE
2
STYLE
5
3
100
AcDbSymbolTable
70
1
0
STYLE
5
11
100
AcDbSymbolTableRecord
100
AcDbTextStyleTableRecord
2
STANDARD
70
0
0
ENDTAB
0
TABLE
2
VIEW
5
6
100
AcDbSymbolTable
70
0
0
ENDTAB
0
TABLE
2
UCS
5
7
100
AcDbSymbolTable
70
0
0
ENDTAB
0
TABLE
2
APPID
5
9
100
AcDbSymbolTable
70
2
0
APPID
5
12
100
AcDbSymbolTableRecord
100
AcDbRegAppTableRecord
2
ACAD
70
0
0
ENDTAB
0
TABLE
2
DIMSTYLE
5
A
100
AcDbSymbolTable
70
1
0
ENDTAB
0
TABLE
2
BLOCK_RECORD
5
1
100
AcDbSymbolTable
70
1
0
BLOCK_RECORD
5
1F
100
AcDbSymbolTableRecord
100
AcDbBlockTableRecord
2
*MODEL_SPACE
0
BLOCK_RECORD
5
1B
100
AcDbSymbolTableRecord
100
AcDbBlockTableRecord
2
*PAPER_SPACE
0
ENDTAB
0
ENDSEC
0
SECTION
2
BLOCKS
0
BLOCK
5
20
100
AcDbEntity
100
AcDbBlockBegin
2
*MODEL_SPACE
0
ENDBLK
5
21
100
AcDbEntity
100
AcDbBlockEnd
0
BLOCK
5
1C
100
AcDbEntity
100
AcDbBlockBegin
2
*PAPER_SPACE
0
ENDBLK
5
1D
100
AcDbEntity
100
AcDbBlockEnd
0
ENDSEC
0
SECTION
2
ENTITIES
0
LINE
5
100
100
AcDbEntity
8
0
100
AcDbLine
10
15.492579818832484
20
-29.301705932540933
30
0
11
18.554047277753121
21
-36.692742192631265
31
0
0
ARC
5
101
100
AcDbEntity
8
0
100
AcDbCircle
10
15.69002072696825
20
-37.879060832962949
30
0
40
3.0999999999998491
210
0
220
0
230
1
100
AcDbArc
50
-157.50000000000054
51
22.499999999999222
0
LINE
5
102
100
AcDbEntity
8
0
100
AcDbLine
10
12.825994176183391
20
-39.065379473294641
30
0
11
9.7645266922629705
21
-31.674343152849474
31
0
0
ARC
5
103
100
AcDbEntity
8
0
100
AcDbCircle
10
12.628553268047627
20
-30.488024572872625
30
0
40
3.0999999999998491
210
0
220
-0
230
1
100
AcDbArc
50
22.499999999999488
51
202.49999879258121
0
CIRCLE
5
104
100
AcDbEntity
8
0
100
AcDbCircle
10
7.1176626405619783e-15
20
69.000000000000043
30
0
40
20.999999999999993
210
0
220
-0
230
1
0
CIRCLE
5
105
100
AcDbEntity
8
0
100
AcDbCircle
10
-48.790367901871797
20
-48.79036790187179
30
0
40
20.999999999999986
210
0
220
-0
230
1
0
LWPOLYLINE
5
106
100
AcDbEntity
8
0
100
AcDbPolyline
90
4
70
1
43
0.0
10
-88.765704138350827
20
-14.854284527460965
42
0.99999999999999989
10
-94.683417747574168
20
-15.844570162625022
42
0.026185921569187042
10
-92.508523508027793
20
-25.654884103512678
42
0.99999999999999989
10
-86.72674078877607
20
-24.05145384704316
42
-0.026185921569187077
0
LWPOLYLINE
5
107
100
AcDbEntity
8
0
100
AcDbPolyline
90
4
70
1
43
0.0
10
44.318120409312044
20
-78.332012634590981
42
0.99999999999999989
10
47.27266176993286
20
-83.554146810230378
42
0.026185921569187042
10
55.747483748250218
20
-78.155089762206629
42
0.9999999925494194
10
52.263266013984534
20
-73.270396652068769
42
-0.026185921569186744
0
CIRCLE
5
108
100
AcDbEntity
8
0
100
AcDbCircle
10
-48.790367901871775
20
48.790367901871804
30
0
40
20.999999999999996
210
0
220
-0
230
1
0
LWPOLYLINE
5
109
100
AcDbEntity
8
0
100
AcDbPolyline
90
4
70
1
43
0.0
10
-44.31812040931203
20
78.332012634590996
42
0.99999999999999989
10
-47.27266176993281
20
83.554146810230478
42
0.026185921569187309
10
-55.747483748250204
20
78.155089762206643
42
0.99999999999999989
10
-52.263266013984534
20
73.270396652068783
42
-0.026185921569186744
0
LWPOLYLINE
5
110
100
AcDbEntity
8
0
100
AcDbPolyline
90
4
70
1
43
0.0
10
14.854284527460983
20
-88.765704138350827
42
0.99999999999999989
10
15.844570162625022
20
-94.683417747574225
42
0.026185921569187309
10
25.654884103512675
20
-92.508523508027807
42
0.99999999999999989
10
24.051453847043057
20
-86.726740788776084
42
-0.026185921569186744
0
LWPOLYLINE
5
111
100
AcDbEntity
8
0
100
AcDbPolyline
90
4
70
1
43
0.0
10
-78.332012634590996
20
-44.318120409312016
42
0.9999999925494194
10
-83.554146810230463
20
-47.27266176993281
42
0.026185921569187309
10
-78.155089762206643
20
-55.747483748250204
42
0.99999999999999989
10
-73.270396652068712
20
-52.263266013984605
42
-0.026185921569187077
0
LWPOLYLINE
5
112
100
AcDbEntity
8
0
100
AcDbPolyline
90
4
70
1
43
0.0
10
-14.854284527460974
20
88.765704138350827
42
0.9999999925494194
10
-15.844570162625025
20
94.683417747574126
42
0.026185921569187042
10
-25.654884103512693
20
92.508523508027764
42
1.0000000074505806
10
-24.051453847042854
20
86.726740788776127
42
-0.026185921569186189
0
CIRCLE
5
113
100
AcDbEntity
8
0
100
AcDbCircle
10
-69
20
1.2404095666333176e-14
30
0
40
20.999999999999986
210
0
220
-0
230
1
0
LWPOLYLINE
5
114
100
AcDbEntity
8
0
100
AcDbPolyline
90
4
70
1
43
0.0
10
78.332012634590967
20
44.318120409312044
42
0.99999999999999989
10
83.554146810230421
20
47.27266176993281
42
0.026185921569187042
10
78.155089762206629
20
55.747483748250218
42
0.99999999999999989
10
73.270396652068698
20
52.263266013984634
42
-0.026185921569187077
0
CIRCLE
5
115
100
AcDbEntity
8
0
100
AcDbCircle
10
48.790367901871775
20
-48.790367901871775
30
0
40
20.999999999999996
210
0
220
-0
230
1
0
CIRCLE
5
116
100
AcDbEntity
8
0
100
AcDbCircle
10
48.790367901871782
20
48.790367901871797
30
0
40
20.999999999999996
210
0
220
-0
230
1
0
LWPOLYLINE
5
117
100
AcDbEntity
8
0
100
AcDbPolyline
90
4
70
1
43
0.0
10
88.765704138350827
20
14.854284527460976
42
0.99999999999999989
10
94.683417747574126
20
15.844570162625029
42
0.026185921569187309
10
92.50852350802775
20
25.654884103512789
42
0.99999999999999989
10
86.726740788776084
20
24.051453847043057
42
-0.026185921569186744
0
CIRCLE
5
118
100
AcDbEntity
8
0
100
AcDbCircle
10
-1.4399560102403667e-19
20
-69
30
0
40
20.999999999999993
210
0
220
-0
230
1
0
CIRCLE
5
119
100
AcDbEntity
8
0
100
AcDbCircle
10
69
20
-4.134652874395808e-15
30
0
40
20.999999999999996
210
0
220
-0
230
1
0
CIRCLE
5
120
100
AcDbEntity
8
0
100
AcDbCircle
10
-8.8817841970012523e-15
20
-2.2204460492503131e-14
30
0
40
100
210
0
220
0
230
1
0
CIRCLE
5
121
100
AcDbEntity
8
0
100
AcDbCircle
10
-8.8817841970012523e-15
20
-2.2204460492503131e-14
30
0
40
28
210
0
220
-0
230
1
0
LWPOLYLINE
5
122
100
AcDbEntity
8
0
100
AcDbPolyline
90
4
70
1
43
0.0
10
27.418613944260628
20
30.640326522013389
42
0.99999999999999989
10
22.499823234455238
20
34.414647381867326
10
17.629731802385397
20
28.067820659537507
42
0.99999999999999989
10
22.548522512190779
20
24.293499799683556
0
LWPOLYLINE
5
123
100
AcDbEntity
8
0
100
AcDbPolyline
90
4
70
1
43
0.0
10
-12.825994176183389
20
39.065379473294641
42
0.99999999999999989
10
-18.554047277753117
20
36.692742192631265
10
-15.492579818832484
20
29.301705932540926
42
0.99999999999999989
10
-9.7645267172627559
20
31.674343213204299
0
LWPOLYLINE
5
124
100
AcDbEntity
8
0
100
AcDbPolyline
90
4
70
1
43
0.0
10
-27.418613944260638
20
-30.640326522013382
42
0.99999999999999989
10
-22.49982323445527
20
-34.414647381867319
10
-17.629731802385415
20
-28.067820659537507
42
0.9999999925494194
10
-22.548522512190793
20
-24.293499799683556
0
LWPOLYLINE
5
125
100
AcDbEntity
8
0
100
AcDbPolyline
90
4
70
1
43
0.0
10
-40.244608120443999
20
8.4250529512812502
42
0.99999998709521587
10
-41.053870576977104
20
2.2780948192908932
10
-33.122311621217875
20
1.2338852730034189
42
0.9999999925494194
10
-32.313049229453526
20
7.3808434135207435
0
LWPOLYLINE
5
126
100
AcDbEntity
8
0
100
AcDbPolyline
90
4
70
1
43
0.0
10
40.244608120444013
20
-8.4250529512812484
42
0.99999999999999989
10
41.053870512208363
20
-2.2780948107639434
10
33.122311621217882
20
-1.2338852730034193
42
0.99999998709521587
10
32.313049229453526
20
-7.3808434135207435
0
ENDSEC
0
SECTION
2
OBJECTS
0
DICTIONARY
5
C
100
AcDbDictionary
3
ACAD_GROUP
350
D
3
ACAD_MLINESTYLE
350
17
0
DICTIONARY
5
D
100
AcDbDictionary
0
DICTIONARY
5
1A
330
C
100
AcDbDictionary
0
DICTIONARY
5
17
100
AcDbDictionary
0
ENDSEC
0
EOF
