0
SECTION
2
HEADER
9
$INSUNITS
70
4
9
$ACADVER
1
AC1014
9
$HANDSEED
5
FFFF
0
ENDSEC
0
SECTION
2
TABLES
0
TABLE
2
VPORT
5
8
100
AcDbSymbolTable
0
ENDTAB
0
TABLE
2
LTYPE
5
5
100
AcDbSymbolTable
0
LTYPE
5
14
100
AcDbSymbolTableRecord
100
AcDbLinetypeTableRecord
2
BYBLOCK
70
0
0
LTYPE
5
15
100
AcDbSymbolTableRecord
100
AcDbLinetypeTableRecord
2
BYLAYER
70
0
0
LTYPE
5
16
100
AcDbSymbolTableRecord
100
AcDbLinetypeTableRecord
2
DASHED
70
0
3
Dashed __ __ __ __ __ __ __ __ __ __ __ __ __ _
72
65
73
2
40
0.75
49
0.5
74
0
49
-0.25
74
0
0
ENDTAB
0
TABLE
2
LAYER
5
2
100
AcDbSymbolTable
70
3
0
LAYER
5
50
100
AcDbSymbolTableRecord
100
AcDbLayerTableRecord
2
1
70
0
62
7
6
DASHED
0
LAYER
5
51
100
AcDbSymbolTableRecord
100
AcDbLayerTableRecord
2
0
70
0
62
7
6
CONTINUOUS
0
ENDTAB
0
TABLE
2
STYLE
5
3
100
AcDbSymbolTable
70
1
0
STYLE
5
11
100
AcDbSymbolTableRecord
100
AcDbTextStyleTableRecord
2
STANDARD
70
0
0
ENDTAB
0
TABLE
2
VIEW
5
6
100
AcDbSymbolTable
70
0
0
ENDTAB
0
TABLE
2
UCS
5
7
100
AcDbSymbolTable
70
0
0
ENDTAB
0
TABLE
2
APPID
5
9
100
AcDbSymbolTable
70
2
0
APPID
5
12
100
AcDbSymbolTableRecord
100
AcDbRegAppTableRecord
2
ACAD
70
0
0
ENDTAB
0
TABLE
2
DIMSTYLE
5
A
100
AcDbSymbolTable
70
1
0
ENDTAB
0
TABLE
2
BLOCK_RECORD
5
1
100
AcDbSymbolTable
70
1
0
BLOCK_RECORD
5
1F
100
AcDbSymbolTableRecord
100
AcDbBlockTableRecord
2
*MODEL_SPACE
0
BLOCK_RECORD
5
1B
100
AcDbSymbolTableRecord
100
AcDbBlockTableRecord
2
*PAPER_SPACE
0
ENDTAB
0
ENDSEC
0
SECTION
2
BLOCKS
0
BLOCK
5
20
100
AcDbEntity
100
AcDbBlockBegin
2
*MODEL_SPACE
0
ENDBLK
5
21
100
AcDbEntity
100
AcDbBlockEnd
0
BLOCK
5
1C
100
AcDbEntity
100
AcDbBlockBegin
2
*PAPER_SPACE
0
ENDBLK
5
1D
100
AcDbEntity
100
AcDbBlockEnd
0
ENDSEC
0
SECTION
2
ENTITIES
0
LWPOLYLINE
5
100
100
AcDbEntity
8
0
100
AcDbPolyline
90
71
70
1
43
0.0
10
-0.82549999999999957
20
31.228821749083821
42
0.28467378564722512
10
-1.3802560975609754
20
32.124231078575569
42
-0.28467378564722484
10
-3.0999999999999925
20
34.900000000000013
10
-3.0999999999999979
20
38.90000000000002
42
-0.99999999999999989
10
3.0999999999999979
20
38.899999999999991
10
3.0999999999999939
20
34.899999999999977
42
-0.28467378564722234
10
1.3802560975609721
20
32.124231078575569
42
0.28467378564722445
10
0.82549999999999402
20
31.228821749083817
10
0.82549999999999446
20
28.742086732699143
42
0.39575563742219783
10
1.7621145833333252
20
27.744097610035972
42
-0.23423346606929285
10
23.146036043699638
20
15.398084798563655
42
0.39575563742219583
10
24.478627268293145
20
15.085947337173602
10
26.632202964962577
20
16.329314845365936
42
0.28467378564722395
10
27.13027214230754
20
17.257452383503924
42
-0.28467378564722506
10
28.674286592076935
20
20.13467875173172
10
32.138388207214653
20
22.134678751731769
42
-0.99999999999999989
10
35.238388207214683
20
16.765321248268201
10
31.774286592076937
20
14.765321248268204
42
-0.28467378564722678
10
28.510528239868499
20
14.866778695071561
42
0.28467378564722712
10
27.457702964962554
20
14.899506903717818
10
25.304127268293144
20
13.656139395525502
42
0.3957556374221961
10
24.908150627032949
20
12.346012811472262
42
-0.23423346606929252
10
24.908150627032949
20
-12.34601281147231
42
0.39575563742219649
10
25.304127268293122
20
-13.65613939552553
10
27.457702964962575
20
-14.899506903717874
42
0.28467378564722245
10
28.51052823986851
20
-14.866778695071634
42
-0.28467378564722207
10
31.774286592076898
20
-14.765321248268268
10
35.238388247219497
20
-16.765321271365039
42
-0.9999999925494194
10
32.138388207214646
20
-22.134678751731791
10
28.674286592076893
20
-20.134678751731798
42
-0.28467378564722412
10
27.130272142307522
20
-17.257452383503981
42
0.2846737856472259
10
26.632202964962559
20
-16.329314845365971
10
24.478627268293124
20
-15.085947337173637
42
0.39575563742220116
10
23.146036043699606
20
-15.398084798563691
42
-0.23423346606929263
10
1.7621145833333363
20
-27.744097610035983
42
0.39575563742219949
10
0.82549999999999679
20
-28.742086732699143
10
0.82549999999999557
20
-31.228821749083828
42
0.28467378564722023
10
1.3802560975609692
20
-32.124231078575576
42
-0.2846737856472239
10
3.0999999999999805
20
-34.900000000000013
10
3.1000000000000174
20
-38.899999999999991
42
-0.99999999999999989
10
-3.1000000000000103
20
-38.899999999999999
10
-3.1000000000000139
20
-34.900000000000006
42
-0.28467378564722462
10
-1.3802560975609846
20
-32.124231078575562
42
0.28467378564722434
10
-0.82550000000000778
20
-31.228821749083814
10
-0.82550000000000467
20
-28.742086732699143
42
0.39575563742219777
10
-1.7621145833333252
20
-27.744097610035983
42
-0.23423346606929285
10
-23.14603604369962
20
-15.398084798563691
42
0.39575563742220332
10
-24.478627268293138
20
-15.08594733717362
10
-26.632202964962577
20
-16.329314845365957
42
0.28467378564722445
10
-27.130272142307543
20
-17.257452383503949
42
-0.2846737856472234
10
-28.674286592076928
20
-20.134678751731741
10
-32.138388207214611
20
-22.13467875173184
42
-0.99999999999999989
10
-35.238388207214676
20
-16.765321248268226
10
-31.774286592076923
20
-14.765321248268219
42
-0.28467378564722517
10
-28.51052823986851
20
-14.866778695071591
42
0.2846737856472254
10
-27.457702964962571
20
-14.899506903717839
10
-25.304127268293136
20
-13.656139395525514
42
0.39575563742219544
10
-24.908150627032978
20
-12.346012811472299
42
-0.23423346606929263
10
-24.908150627032963
20
12.346012811472287
42
0.39575563742220443
10
-25.304127268293133
20
13.656139395525525
10
-27.457702964962554
20
14.899506903717846
42
0.28467378564722495
10
-28.510528239868485
20
14.866778695071597
42
-0.2846737856472259
10
-31.774286592076898
20
14.76532124826824
10
-35.238388207214683
20
16.765321248268194
42
-0.99999999999999989
10
-32.13838820721466
20
22.134678751731766
10
-28.674286592076925
20
20.134678751731755
42
-0.28467378564722651
10
-27.130272142307511
20
17.257452383503953
42
0.2846737856472254
10
-26.632202964962552
20
16.329314845365953
10
-23.652139617708624
20
14.608774469626766
42
-0.2431462557037814
10
-1.7621145833333429
20
27.744097610035972
42
0.3957556374222006
10
-0.82550000000000034
20
28.742086732699143
0
CIRCLE
5
101
100
AcDbEntity
8
0
100
AcDbCircle
10
7.1176626405619783e-15
20
69.000000000000043
30
0
40
20.999999999999993
210
0
220
-0
230
1
0
CIRCLE
5
102
100
AcDbEntity
8
0
100
AcDbCircle
10
-48.790367901871797
20
-48.79036790187179
30
0
40
20.999999999999986
210
0
220
-0
230
1
0
LWPOLYLINE
5
103
100
AcDbEntity
8
0
100
AcDbPolyline
90
4
70
1
43
0.0
10
-88.765704138350827
20
-14.854284527460965
42
0.99999999999999989
10
-94.683417747574168
20
-15.844570162625022
42
0.026185921569187042
10
-92.508523508027793
20
-25.654884103512678
42
0.99999999999999989
10
-86.72674078877607
20
-24.05145384704316
42
-0.026185921569187077
0
LWPOLYLINE
5
104
100
AcDbEntity
8
0
100
AcDbPolyline
90
4
70
1
43
0.0
10
44.318120409312044
20
-78.332012634590981
42
0.99999999999999989
10
47.27266176993286
20
-83.554146810230378
42
0.026185921569187042
10
55.747483748250218
20
-78.155089762206629
42
0.9999999925494194
10
52.263266013984534
20
-73.270396652068769
42
-0.026185921569186744
0
CIRCLE
5
105
100
AcDbEntity
8
0
100
AcDbCircle
10
-48.790367901871775
20
48.790367901871804
30
0
40
20.999999999999996
210
0
220
-0
230
1
0
LWPOLYLINE
5
106
100
AcDbEntity
8
0
100
AcDbPolyline
90
4
70
1
43
0.0
10
-44.31812040931203
20
78.332012634590996
42
0.99999999999999989
10
-47.27266176993281
20
83.554146810230478
42
0.026185921569187309
10
-55.747483748250204
20
78.155089762206643
42
0.99999999999999989
10
-52.263266013984534
20
73.270396652068783
42
-0.026185921569186744
0
LWPOLYLINE
5
107
100
AcDbEntity
8
0
100
AcDbPolyline
90
4
70
1
43
0.0
10
14.854284527460983
20
-88.765704138350827
42
0.99999999999999989
10
15.844570162625022
20
-94.683417747574225
42
0.026185921569187309
10
25.654884103512675
20
-92.508523508027807
42
0.99999999999999989
10
24.051453847043057
20
-86.726740788776084
42
-0.026185921569186744
0
LWPOLYLINE
5
108
100
AcDbEntity
8
0
100
AcDbPolyline
90
4
70
1
43
0.0
10
-78.332012634590996
20
-44.318120409312016
42
0.9999999925494194
10
-83.554146810230463
20
-47.27266176993281
42
0.026185921569187309
10
-78.155089762206643
20
-55.747483748250204
42
0.99999999999999989
10
-73.270396652068712
20
-52.263266013984605
42
-0.026185921569187077
0
LWPOLYLINE
5
109
100
AcDbEntity
8
0
100
AcDbPolyline
90
4
70
1
43
0.0
10
-14.854284527460974
20
88.765704138350827
42
0.9999999925494194
10
-15.844570162625025
20
94.683417747574126
42
0.026185921569187042
10
-25.654884103512693
20
92.508523508027764
42
1.0000000074505806
10
-24.051453847042854
20
86.726740788776127
42
-0.026185921569186189
0
CIRCLE
5
110
100
AcDbEntity
8
0
100
AcDbCircle
10
-69
20
1.2404095666333176e-14
30
0
40
20.999999999999986
210
0
220
-0
230
1
0
LWPOLYLINE
5
111
100
AcDbEntity
8
0
100
AcDbPolyline
90
4
70
1
43
0.0
10
78.332012634590967
20
44.318120409312044
42
0.99999999999999989
10
83.554146810230421
20
47.27266176993281
42
0.026185921569187042
10
78.155089762206629
20
55.747483748250218
42
0.99999999999999989
10
73.270396652068698
20
52.263266013984634
42
-0.026185921569187077
0
CIRCLE
5
112
100
AcDbEntity
8
0
100
AcDbCircle
10
48.790367901871775
20
-48.790367901871775
30
0
40
20.999999999999996
210
0
220
-0
230
1
0
CIRCLE
5
113
100
AcDbEntity
8
0
100
AcDbCircle
10
48.790367901871782
20
48.790367901871797
30
0
40
20.999999999999996
210
0
220
-0
230
1
0
LWPOLYLINE
5
114
100
AcDbEntity
8
0
100
AcDbPolyline
90
4
70
1
43
0.0
10
88.765704138350827
20
14.854284527460976
42
0.99999999999999989
10
94.683417747574126
20
15.844570162625029
42
0.026185921569187309
10
92.50852350802775
20
25.654884103512789
42
0.99999999999999989
10
86.726740788776084
20
24.051453847043057
42
-0.026185921569186744
0
CIRCLE
5
115
100
AcDbEntity
8
0
100
AcDbCircle
10
-1.4399560102403667e-19
20
-69
30
0
40
20.999999999999993
210
0
220
-0
230
1
0
CIRCLE
5
116
100
AcDbEntity
8
0
100
AcDbCircle
10
69
20
-4.134652874395808e-15
30
0
40
20.999999999999996
210
0
220
-0
230
1
0
CIRCLE
5
117
100
AcDbEntity
8
0
100
AcDbCircle
10
-8.8817841970012523e-15
20
-2.2204460492503131e-14
30
0
40
100
210
0
220
0
230
1
0
ENDSEC
0
SECTION
2
OBJECTS
0
DICTIONARY
5
C
100
AcDbDictionary
3
ACAD_GROUP
350
D
3
ACAD_MLINESTYLE
350
17
0
DICTIONARY
5
D
100
AcDbDictionary
0
DICTIONARY
5
1A
330
C
100
AcDbDictionary
0
DICTIONARY
5
17
100
AcDbDictionary
0
ENDSEC
0
EOF
